# xmcd
#
# Track frame offsets: 
#        150
#        17291
#        36409
#        53880
#        68468
#        84237
#        102289
#        118841
#
# Disc length: 1802 seconds
#
# Revision: 0
# Processed by: cddbd v1.5.2PL0 Copyright (c) Steve Scherf et al.
# Submitted via: ExactAudioCopyFreeDBPlugin 1.0
#
DISCID=5a070808
DTITLE=New West - Stay On Track
DYEAR=2019
DGENRE=Country
TTITLE0=That's Why I Am Writing
TTITLE1=Talking In Your Sleep
TTITLE2=Clock On The Wall
TTITLE3=Lost Sheep Lullaby
TTITLE4=Stay On Track
TTITLE5=Call Them Names
TTITLE6=There Lies A Book
TTITLE7=Mind If I Take You Home
EXTD=
EXTT0=
EXTT1=
EXTT2=
EXTT3=
EXTT4=
EXTT5=
EXTT6=
EXTT7=
PLAYORDER=
